# xmcd CD database file
#
# Track frame offsets:
#	183
#	10905
#	24675
#	39503
#	50488
#	63435
#	76320
#	87980
#	98868
#	110908
#
# Disc length: 1619 seconds
#
# Revision: 5
# Processed by: cddbd v1.5.2PL0 Copyright (c) Steve Scherf et al.
# Submitted via: CDex 1.70beta2
#
DISCID=7e06510a
DTITLE=Various Artist - Billboard Top Country Hits - 1961
DYEAR=1992
DGENRE=Country
TTITLE0=Leroy Van Dyke - Walk on By
TTITLE1=Jimmy Dean - Big Bad John
TTITLE2=Marty Robbins - Don't Worry
TTITLE3=Faron Young - Hello Walls
TTITLE4=Johnny Horton - North to Alaska
TTITLE5=Patsy Cline - I Fall to Pieces
TTITLE6=Don Gibson - Sea of Heartbreak
TTITLE7=George Jones - Tender Years
TTITLE8=Buck Owens - Foolin' Around
TTITLE9=Floyd Cramer - San Antonio Rose
EXTD=top country 1961 YEAR: 1992
EXTT0=
EXTT1=
EXTT2=
EXTT3=
EXTT4=
EXTT5=
EXTT6=
EXTT7=
EXTT8=
EXTT9=
PLAYORDER=
